<svg xmlns="http://www.w3.org/2000/svg" xmlns:xlink="http://www.w3.org/1999/xlink" version="1.1" x="0px" y="0px" viewBox="0 0 64 80" style="enable-background:new 0 0 64 64;" xml:space="preserve"><path d="M61,54h-4V25c0-2.757-2.243-5-5-5H34.816C34.928,19.686,35,19.352,35,19c0-1.654-1.346-3-3-3s-3,1.346-3,3  c0,0.352,0.072,0.686,0.184,1H12c-2.757,0-5,2.243-5,5v29H3c-0.552,0-1,0.448-1,1c0,3.86,3.14,7,7,7h46c3.86,0,7-3.14,7-7  C62,54.448,61.552,54,61,54z M31,19c0-0.551,0.449-1,1-1s1,0.449,1,1s-0.449,1-1,1S31,19.551,31,19z M9,25c0-1.654,1.346-3,3-3h40  c1.654,0,3,1.346,3,3v29H9V25z M55,60H9c-2.415,0-4.435-1.721-4.899-4H8h48h3.899C59.435,58.279,57.415,60,55,60z"/><path d="M52,24H12c-0.552,0-1,0.448-1,1v26c0,0.552,0.448,1,1,1h40c0.552,0,1-0.448,1-1V25C53,24.448,52.552,24,52,24z M51,50H13V26  h38V50z"/><path d="M23.03,33.243L23.03,33.243l2.427,9.993c0.009,0.039,0.032,0.07,0.046,0.107C25.186,43.818,25,44.387,25,45  c0,1.654,1.346,3,3,3s3-1.346,3-3c0-0.352-0.072-0.686-0.184-1h2.369C33.072,44.314,33,44.648,33,45c0,1.654,1.346,3,3,3  s3-1.346,3-3c0-0.666-0.226-1.277-0.595-1.775l2.981-9.938c0.091-0.303,0.033-0.63-0.156-0.884C41.042,32.149,40.745,32,40.429,32  H24.781l-0.811-3.243C23.859,28.312,23.459,28,23,28h-5v2h4.219L23.03,33.243z M29,45c0,0.551-0.449,1-1,1s-1-0.449-1-1s0.449-1,1-1  S29,44.449,29,45z M36,46c-0.551,0-1-0.449-1-1s0.449-1,1-1s1,0.449,1,1S36.551,46,36,46z M39.084,34l-2.4,8h-9.47l-1.943-8H39.084z  "/><path d="M43.66,6.248c-6.43-5.64-16.89-5.64-23.319,0l1.319,1.504c5.701-5.002,14.979-5.002,20.681,0L43.66,6.248z"/><path d="M25.374,14.221l1.253,1.559c2.963-2.382,7.784-2.382,10.747,0l1.253-1.559C34.973,11.283,29.027,11.283,25.374,14.221z"/><path d="M40.671,10.258c-4.781-4.325-12.561-4.325-17.342,0l1.342,1.483c4.041-3.656,10.617-3.656,14.658,0L40.671,10.258z"/><text x="0" y="79" fill="#000000" font-size="5px" font-weight="bold" font-family="'Helvetica Neue', Helvetica, Arial-Unicode, Arial, Sans-serif">Created by Becris</text><text x="0" y="84" fill="#000000" font-size="5px" font-weight="bold" font-family="'Helvetica Neue', Helvetica, Arial-Unicode, Arial, Sans-serif">from the Noun Project</text></svg>